{"title":"Story Of The Blues  From Blind Lemon Jefferson To B.B. King (mp4","uid":6515578,"size":689705707,"categoryP":"video","categoryS":"music_videos","magnet":"?xt=urn:btih:923203156b8a6bfc8ee8c94245f78bbec07c9841&amp;dn=Story+Of+The+Blues++From+Blind+Lemon+Jefferson+To+B.B.+King+%28mp4&amp;tr=udp%3A%2F%2Ftracker.openbittorrent.com%3A80&amp;tr=udp%3A%2F%2Fopen.demonii.com%3A1337&amp;tr=udp%3A%2F%2Ftracker.coppersurfer.tk%3A6969&amp;tr=udp%3A%2F%2Fexodus.desync.com%3A6969","seeders":3,"leechers":1,"uploader":"rogercc1","files":1,"time":1309801961,"description":"Story Of The Blues  From Blind Lemon Jefferson To B.B. King \nReleased: 2004\nLabel: Quantum Leap\nFormat:mp4\n\nDefining the blues is a simple task: a basic I-IV-V chord progression laid over a 12-bar framework, however the blues have evolved from African-American field hollers through rough-hewn rural heavyweights such as Blind Lemon Jefferson to the immaculate guitar excursions of B.B. King. The Story Of The Blues traces the four principal traditions of blues music: Blues Form - Country Blues - Urban Blues - Electric Blues and it's significant contribution to the development of jazz, rock music, and country and western music. This DVD includes tracks from Big Bill Broonzy, Robert Johnson, Lonnie Johnson, Blind Lemon Jefferson, Texas Alexander, and many more.\nThe blues has progressed, diversified, and seeped into a surprising array of styles within contemporary music. Here the entire history of the music is unveiled, with a look at the roots and origins of the genre fully expored, as well as the subsequent influence of the style. Among the artists featured are Robert Johnson, Blind Lemon Jefferson, Big Bill Broonzy, and many others.\n\n\nTracklist:\n\n01. Take This Hammer (Big Bill Broonzy)\n02. Crossroads Blues (Robert Johnson)\n03. New Falling Rain Blues (Lonnie Johnson)\n04. Hangman's Blues (Blind Lemon Jefferson)\n05. When The Sun Goes Down (Big Bill Broonzy)\n06. Katy Crossing Blues (Alger Alexander)\n07. The Blues (Duke Ellington &amp; His Orchestra)\n08. Stack of Blues (Mississippi John Hurt)\n09. The Flood (Big Bill Broonzy)\n10. Mama Stayed Out (Barrel House Five Orchestra)\n11. Steady Roll (Jelly Roll Morton)\n12. Sun Brimmers Blues (Memphis Jug Band)\n13. I'm Feeling Down (Texas Jug Band)\n14. Texas Moaner Blues (Clarence Williams' Blue Five)\n15. True Love (Memphis Minnie)\n16. Muddy Water Blues (Jelly Roll Morton)\n17. Sol Blues (Louis Armstrong &amp; His Hot Seven)\n18. Creole Love Call (Adelaide Hall, Duke Ellington &amp; His Orchestra)\n19. Black Snake Blues (King Oliver &amp; Dixie Syncopators)\n20. Cathedral Blues (Tony Parnham &amp; His Orchestra)\n21. She Belongs To The Devil (Washboard Sam &amp; His Washboard Band)\n22. Kansas City Blues Man (Clarence Williams' Blue Five)\n23. Red Beans &amp; Rice (Kokomo Arnold)\n24. West End Blues (Louis Armstrong &amp; His Hot Five)\n25. Jealous Hearted Blues (Ma Rainey)\n26. Lowland Blues (Bertha Hill)\n27. Hard Driving Papa (Bessie Smith)\n28. The Moochie (Washingtonians)\n29. Dive Bomber (Pete Johnson)\n30. Across The Track Blues (Duke Ellington)\n31. My Fighting Gal (Hot Lips Page, Teddy Bunn)\n32. Evolution Blues (Cousin Joe)\n33. Sweet Little Angel (B.B. King)\n34. Dust My Broom (Elmore James)\n\n\n\nGeneral\n\nComplete name                    : F:\\MUSIC UP\\Story of The Blues(mp4)\\Story of the Blues(music\nFormat                           : MPEG-4\nCodec ID                         : M4V \nDuration                         : 1h 41mn\nOverall bit rate                 : 902 Kbps\nEncoded date                     : UTC 2011-07-02 00:15:12\nTagged date                      : UTC 2011-07-02 00:15:12\n\nVideo\nID                               : 1\nFormat                           : MPEG-4 Visual\nFormat profile                   : Simple@L1\nFormat settings, Matrix          : Default (H.263)\nCodec ID                         : 20\nBit rate                         : 769 Kbps Variable\nMaximum bit rate                 : 8 164 Kbps\nWidth   x Height             : 720 x 480  pixels\nDisplay aspect ratio             : 4:3\nFrame rate mode                  : Variable\nFrame rate                       : 29.970 fps\nMinimum frame rate               : 2.305 fps\nMaximum frame rate               : 29.970 fps\nScan type                        : Progressive\nCompression mode                 : Lossy\nBits/(Pixel*Frame)               : 0.074\nStream size                      : 563 MiB (86%)\nWriting library                  : Lavc52.78.0\n\nAudio\nID                               : 2\nFormat                           : AAC\nFormat profile                   : LC\nCodec ID                         : 40\nBit rate                     : 128 kbps Variable\nMaximum bit rate                 : 161 Kbps\nChannel(s)                       : 2 channels\nSampling rate                    : 48.0 KHz\nCompression mode                 : Lossy\nStream size                      : 93.3 MiB (14%)\n\n","torrent":{"xt":"urn:btih:923203156b8a6bfc8ee8c94245f78bbec07c9841","amp;dn":"Story+Of+The+Blues++From+Blind+Lemon+Jefferson+To+B.B.+King+%28mp4","amp;tr":["udp%3A%2F%2Ftracker.openbittorrent.com%3A80","udp%3A%2F%2Fopen.demonii.com%3A1337","udp%3A%2F%2Ftracker.coppersurfer.tk%3A6969","udp%3A%2F%2Fexodus.desync.com%3A6969"],"infoHash":"923203156b8a6bfc8ee8c94245f78bbec07c9841","infoHashBuffer":{"type":"Buffer","data":[146,50,3,21,107,138,107,252,142,232,201,66,69,247,139,190,192,124,152,65]},"announce":[],"urlList":[]}}